<mxfile host="app.diagrams.net" agent="Mozilla/5.0 (X11; Linux x86_64) AppleWebKit/537.36 (KHTML, like Gecko) Chrome/127.0.0.0 Safari/537.36" version="24.7.6">
  <diagram name="Page-1" id="j65fnRgy0B3ecU_1951z">
    <mxGraphModel dx="1660" dy="481" grid="1" gridSize="10" guides="1" tooltips="1" connect="1" arrows="1" fold="1" page="1" pageScale="1" pageWidth="850" pageHeight="1100" math="0" shadow="0">
      <root>
        <mxCell id="0" />
        <mxCell id="1" parent="0" />
        <mxCell id="myTvoz_rJAR2s6-JXw8G-3" style="edgeStyle=orthogonalEdgeStyle;rounded=0;orthogonalLoop=1;jettySize=auto;html=1;exitX=0.5;exitY=1;exitDx=0;exitDy=0;" parent="1" target="myTvoz_rJAR2s6-JXw8G-2" edge="1">
          <mxGeometry relative="1" as="geometry">
            <mxPoint x="-75" y="270" as="sourcePoint" />
          </mxGeometry>
        </mxCell>
        <mxCell id="myTvoz_rJAR2s6-JXw8G-1" value="&lt;b&gt;&lt;font style=&quot;font-size: 25px;&quot;&gt;Shellio.c&lt;/font&gt;&lt;/b&gt;" style="rounded=1;whiteSpace=wrap;html=1;fillColor=#dae8fc;strokeColor=#6c8ebf;" parent="1" vertex="1">
          <mxGeometry x="-225" y="210" width="300" height="60" as="geometry" />
        </mxCell>
        <mxCell id="myTvoz_rJAR2s6-JXw8G-15" style="edgeStyle=orthogonalEdgeStyle;rounded=0;orthogonalLoop=1;jettySize=auto;html=1;exitX=0.5;exitY=1;exitDx=0;exitDy=0;entryX=0.5;entryY=0;entryDx=0;entryDy=0;" parent="1" source="myTvoz_rJAR2s6-JXw8G-2" target="myTvoz_rJAR2s6-JXw8G-9" edge="1">
          <mxGeometry relative="1" as="geometry" />
        </mxCell>
        <mxCell id="myTvoz_rJAR2s6-JXw8G-34" style="edgeStyle=orthogonalEdgeStyle;rounded=0;orthogonalLoop=1;jettySize=auto;html=1;exitX=1;exitY=0.5;exitDx=0;exitDy=0;" parent="1" source="myTvoz_rJAR2s6-JXw8G-2" edge="1">
          <mxGeometry relative="1" as="geometry">
            <mxPoint x="390" y="380" as="targetPoint" />
          </mxGeometry>
        </mxCell>
        <mxCell id="myTvoz_rJAR2s6-JXw8G-2" value="&lt;b&gt;&lt;font color=&quot;#000000&quot; style=&quot;font-size: 25px;&quot;&gt;Utility.h&lt;/font&gt;&lt;/b&gt;" style="rounded=1;whiteSpace=wrap;html=1;fillColor=#1ba1e2;fontColor=#ffffff;strokeColor=#006EAF;" parent="1" vertex="1">
          <mxGeometry x="-300" y="350" width="450" height="60" as="geometry" />
        </mxCell>
        <mxCell id="myTvoz_rJAR2s6-JXw8G-4" value="Execute Commands&lt;br&gt;Handlers" style="rounded=1;whiteSpace=wrap;html=1;arcSize=40;fontColor=#000000;fillColor=#ffffc0;strokeColor=#ff0000;" parent="1" vertex="1">
          <mxGeometry x="-300" y="290" width="90" height="80" as="geometry" />
        </mxCell>
        <mxCell id="myTvoz_rJAR2s6-JXw8G-7" value="Print Prompt" style="rounded=1;whiteSpace=wrap;html=1;arcSize=40;fontColor=#000000;fillColor=#ffffc0;strokeColor=#ff0000;" parent="1" vertex="1">
          <mxGeometry x="60" y="300" width="90" height="80" as="geometry" />
        </mxCell>
        <mxCell id="myTvoz_rJAR2s6-JXw8G-8" value="Definations" style="rounded=1;whiteSpace=wrap;html=1;arcSize=40;fontColor=#000000;fillColor=#ffffc0;strokeColor=#ff0000;" parent="1" vertex="1">
          <mxGeometry x="-35" y="300" width="90" height="80" as="geometry" />
        </mxCell>
        <mxCell id="myTvoz_rJAR2s6-JXw8G-9" value="&lt;font color=&quot;#1a1a1a&quot; style=&quot;font-size: 25px;&quot;&gt;Commands.h&lt;/font&gt;" style="rounded=1;whiteSpace=wrap;html=1;fillColor=#60a917;fontColor=#ffffff;strokeColor=#2D7600;" parent="1" vertex="1">
          <mxGeometry x="-480" y="540" width="810" height="70" as="geometry" />
        </mxCell>
        <mxCell id="myTvoz_rJAR2s6-JXw8G-16" value="Definations" style="rounded=1;whiteSpace=wrap;html=1;arcSize=40;fontColor=#000000;fillColor=#ffffc0;strokeColor=#ff0000;" parent="1" vertex="1">
          <mxGeometry x="35" y="480" width="90" height="80" as="geometry" />
        </mxCell>
        <mxCell id="myTvoz_rJAR2s6-JXw8G-19" value="handle rediections" style="rounded=1;whiteSpace=wrap;html=1;arcSize=40;fontColor=#000000;fillColor=#ffffc0;strokeColor=#ff0000;" parent="1" vertex="1">
          <mxGeometry x="240" y="480" width="90" height="80" as="geometry" />
        </mxCell>
        <mxCell id="myTvoz_rJAR2s6-JXw8G-20" value="&lt;font style=&quot;font-size: 20px;&quot;&gt;...... &lt;/font&gt;Some other built-in commands" style="rounded=1;whiteSpace=wrap;html=1;arcSize=40;fontColor=#000000;fillColor=#ffffc0;strokeColor=#ff0000;" parent="1" vertex="1">
          <mxGeometry x="-65" y="480" width="90" height="80" as="geometry" />
        </mxCell>
        <mxCell id="myTvoz_rJAR2s6-JXw8G-21" value="external commands" style="rounded=1;whiteSpace=wrap;html=1;arcSize=40;fontColor=#000000;fillColor=#ffffc0;strokeColor=#ff0000;" parent="1" vertex="1">
          <mxGeometry x="135" y="480" width="90" height="80" as="geometry" />
        </mxCell>
        <mxCell id="myTvoz_rJAR2s6-JXw8G-22" value="free" style="rounded=1;whiteSpace=wrap;html=1;arcSize=40;fontColor=#000000;fillColor=#ffffc0;strokeColor=#ff0000;" parent="1" vertex="1">
          <mxGeometry x="-185" y="480" width="90" height="80" as="geometry" />
        </mxCell>
        <mxCell id="myTvoz_rJAR2s6-JXw8G-23" value="uptime" style="rounded=1;whiteSpace=wrap;html=1;arcSize=40;fontColor=#000000;fillColor=#ffffc0;strokeColor=#ff0000;" parent="1" vertex="1">
          <mxGeometry x="-285" y="480" width="90" height="80" as="geometry" />
        </mxCell>
        <mxCell id="myTvoz_rJAR2s6-JXw8G-24" value="Print Env" style="rounded=1;whiteSpace=wrap;html=1;arcSize=40;fontColor=#000000;fillColor=#ffffc0;strokeColor=#ff0000;" parent="1" vertex="1">
          <mxGeometry x="-385" y="480" width="90" height="80" as="geometry" />
        </mxCell>
        <mxCell id="myTvoz_rJAR2s6-JXw8G-25" value="Parent Loop" style="rounded=1;whiteSpace=wrap;html=1;arcSize=40;fontColor=#000000;fillColor=#ffffc0;strokeColor=#ff0000;" parent="1" vertex="1">
          <mxGeometry x="-480" y="480" width="90" height="80" as="geometry" />
        </mxCell>
        <mxCell id="myTvoz_rJAR2s6-JXw8G-27" value="&lt;font style=&quot;font-size: 25px;&quot;&gt;Helper.h&lt;/font&gt;" style="rounded=0;whiteSpace=wrap;html=1;fillColor=#ffe6cc;strokeColor=#d79b00;" parent="1" vertex="1">
          <mxGeometry x="400" y="290" width="120" height="370" as="geometry" />
        </mxCell>
        <mxCell id="myTvoz_rJAR2s6-JXw8G-29" style="edgeStyle=orthogonalEdgeStyle;rounded=0;orthogonalLoop=1;jettySize=auto;html=1;exitX=1;exitY=0.5;exitDx=0;exitDy=0;entryX=0;entryY=0.914;entryDx=0;entryDy=0;entryPerimeter=0;" parent="1" source="myTvoz_rJAR2s6-JXw8G-9" target="myTvoz_rJAR2s6-JXw8G-27" edge="1">
          <mxGeometry relative="1" as="geometry" />
        </mxCell>
        <mxCell id="myTvoz_rJAR2s6-JXw8G-30" value="Push in history Stack" style="rounded=1;whiteSpace=wrap;html=1;arcSize=40;fontColor=#000000;fillColor=#ffffc0;strokeColor=#ff0000;" parent="1" vertex="1">
          <mxGeometry x="510" y="480" width="90" height="80" as="geometry" />
        </mxCell>
        <mxCell id="myTvoz_rJAR2s6-JXw8G-31" value="Handle Relative Paths" style="rounded=1;whiteSpace=wrap;html=1;arcSize=40;fontColor=#000000;fillColor=#ffffc0;strokeColor=#ff0000;" parent="1" vertex="1">
          <mxGeometry x="510" y="390" width="90" height="80" as="geometry" />
        </mxCell>
        <mxCell id="myTvoz_rJAR2s6-JXw8G-32" value="Parse Commands" style="rounded=1;whiteSpace=wrap;html=1;arcSize=40;fontColor=#000000;fillColor=#ffffc0;strokeColor=#ff0000;" parent="1" vertex="1">
          <mxGeometry x="510" y="300" width="90" height="80" as="geometry" />
        </mxCell>
        <mxCell id="myTvoz_rJAR2s6-JXw8G-33" value="Some repetitive sequences" style="rounded=1;whiteSpace=wrap;html=1;arcSize=40;fontColor=#000000;fillColor=#ffffc0;strokeColor=#ff0000;" parent="1" vertex="1">
          <mxGeometry x="510" y="570" width="90" height="80" as="geometry" />
        </mxCell>
      </root>
    </mxGraphModel>
  </diagram>
</mxfile>
